<svg width="1920" height="70" viewBox="0 0 1920 70" fill="none" xmlns="http://www.w3.org/2000/svg">
<mask id="path-1-inside-1_19_62" fill="white">
<path d="M1931 44.6501V64.5316L958.925 70L-10 60.1522V40.2672C-10 40.2672 1324.69 73.988 1529.28 19.1541C1733.86 -35.6798 1931 44.6501 1931 44.6501Z"/>
</mask>
<path d="M1931 64.5316L1931.9 224.529L2091 223.634V64.5316H1931ZM1931 44.6501H2091V-62.9273L1991.38 -103.521L1931 44.6501ZM1529.28 19.1541L1570.7 173.699L1570.7 173.699L1529.28 19.1541ZM-10 40.2672L-5.95891 -119.682L-170 -123.826V40.2672H-10ZM-10 60.1522H-170V218.534L-11.6261 220.144L-10 60.1522ZM958.925 70L957.299 229.992L958.562 230.005L959.825 229.997L958.925 70ZM2091 64.5316V44.6501H1771V64.5316H2091ZM1931 44.6501C1991.38 -103.521 1991.33 -103.539 1991.29 -103.558C1991.27 -103.564 1991.22 -103.583 1991.19 -103.596C1991.13 -103.622 1991.06 -103.649 1990.99 -103.678C1990.85 -103.735 1990.69 -103.797 1990.53 -103.864C1990.2 -103.998 1989.81 -104.15 1989.38 -104.321C1988.52 -104.663 1987.46 -105.079 1986.21 -105.56C1983.71 -106.523 1980.43 -107.754 1976.44 -109.195C1968.46 -112.075 1957.54 -115.817 1944.08 -119.962C1917.26 -128.22 1879.73 -138.262 1834.7 -146.22C1746.11 -161.875 1620.36 -170.906 1487.85 -135.391L1570.7 173.699C1642.78 154.38 1717.89 158.097 1779.01 168.898C1808.84 174.169 1833.39 180.782 1849.92 185.872C1858.14 188.402 1864.22 190.508 1867.82 191.806C1869.62 192.454 1870.78 192.896 1871.26 193.083C1871.51 193.176 1871.58 193.205 1871.47 193.164C1871.42 193.143 1871.33 193.105 1871.18 193.048C1871.11 193.02 1871.03 192.987 1870.94 192.949C1870.89 192.93 1870.84 192.91 1870.79 192.889C1870.76 192.878 1870.72 192.861 1870.71 192.856C1870.67 192.839 1870.62 192.822 1931 44.6501ZM1487.85 -135.391C1478.13 -132.786 1448.29 -128.056 1392.09 -123.721C1339.57 -119.669 1273.44 -116.582 1197.73 -114.344C1046.49 -109.873 862.556 -108.94 683.621 -109.725C504.955 -110.509 332.494 -112.998 204.615 -115.295C140.703 -116.443 87.9898 -117.541 51.283 -118.352C32.9308 -118.757 18.5834 -119.091 8.84194 -119.322C3.9713 -119.438 0.252424 -119.528 -2.23952 -119.59C-3.48548 -119.62 -4.42468 -119.643 -5.04772 -119.659C-5.35924 -119.667 -5.59172 -119.673 -5.74397 -119.676C-5.8201 -119.678 -5.87618 -119.68 -5.91205 -119.681C-5.92999 -119.681 -5.9417 -119.681 -5.95069 -119.682C-5.95734 -119.682 -5.95891 -119.682 -10 40.2672C-14.0411 200.216 -14.0325 200.216 -14.0188 200.217C-14.0075 200.217 -13.9887 200.217 -13.9661 200.218C-13.9208 200.219 -13.8552 200.221 -13.7696 200.223C-13.5984 200.227 -13.3468 200.234 -13.016 200.242C-12.3544 200.258 -11.3761 200.283 -10.0905 200.314C-7.51919 200.377 -3.71847 200.469 1.23643 200.587C11.146 200.823 25.6734 201.16 44.2164 201.57C81.2998 202.389 134.458 203.497 198.87 204.653C327.639 206.966 501.638 209.48 682.218 210.272C862.529 211.063 1050.62 210.145 1207.18 205.516C1285.36 203.205 1357.08 199.93 1416.7 195.331C1472.66 191.014 1529.27 184.803 1570.7 173.699L1487.85 -135.391ZM-170 40.2672V60.1522H150V40.2672H-170ZM-11.6261 220.144L957.299 229.992L960.551 -89.9917L-8.3739 -99.8396L-11.6261 220.144ZM959.825 229.997L1931.9 224.529L1930.1 -95.4658L958.025 -89.9975L959.825 229.997Z" fill="#299099" mask="url(#path-1-inside-1_19_62)"/>
</svg>
