<svg width="1465" height="1520" viewBox="0 0 1465 1520" fill="none" xmlns="http://www.w3.org/2000/svg">
<path id="Vector 1" d="M81.2652 9.75127C82.7363 6.80022 83.904 4.53279 84.7056 3H1462V565V1174.51C1373.16 1366.74 1140.47 1504.68 914.668 1514.85C801.734 1519.94 690.862 1493.04 600.782 1425.29C510.745 1357.57 441.064 1248.74 411.011 1089.17C380.743 928.458 346.224 826.729 309.927 759.073C273.542 691.256 235.421 657.776 198.31 633.489C186.668 625.87 174.992 619.079 163.628 612.469C157.109 608.678 150.692 604.946 144.443 601.151C127.134 590.64 110.596 579.367 94.987 564.203C63.8728 533.974 35.9082 487.746 13.9774 400.002C-5.90003 302.927 11.9845 203.173 35.0079 127.447C46.5107 89.6136 59.2653 57.8782 69.14 35.6104C74.0764 24.4786 78.2907 15.7183 81.2652 9.75127Z" fill="#1681A4" stroke="#1681A4" stroke-width="9"/>
</svg>
