<svg width="1920" height="483" viewBox="0 0 1920 483" fill="none" xmlns="http://www.w3.org/2000/svg">
<path d="M0 479V147.032C0.668421 146.964 1.42851 146.887 2.27909 146.8C6.16003 146.406 11.9249 145.818 19.462 145.042C34.5361 143.49 56.6995 141.188 85.0592 138.186C141.778 132.182 223.283 123.381 322.432 112.187C520.726 89.7993 789.601 57.8433 1071.91 19.5697C1353.53 -18.6096 1593.37 19.6321 1762.81 67.4153C1847.52 91.3063 1914.62 117.579 1960.52 137.867C1983.47 148.01 2001.11 156.656 2013.01 162.759C2018.96 165.811 2023.47 168.226 2026.48 169.875C2027.49 170.424 2028.33 170.888 2029 171.262V423.394C2027.04 423.721 2024.23 424.182 2020.61 424.758C2012.94 425.98 2001.64 427.719 1987.15 429.785C1958.16 433.915 1916.41 439.35 1865.39 444.561C1763.33 454.984 1624.21 464.506 1475.92 460.92C1327.31 457.327 972.003 461.849 653.954 467.267C494.906 469.976 345.142 472.909 235.139 475.166C180.138 476.294 135.076 477.253 103.765 477.929C88.11 478.268 75.892 478.536 67.5878 478.719C63.4357 478.811 60.262 478.881 58.1263 478.929L55.7086 478.983L55.0976 478.996L54.944 479L54.9373 479H0Z" fill="#1E7C85" stroke="#1E7C85" stroke-width="8"/>
</svg>
